<?xml version="1.0" encoding="utf-8"?>
<!-- Generator: Adobe Illustrator 15.1.0, SVG Export Plug-In . SVG Version: 6.00 Build 0)  -->
<!DOCTYPE svg PUBLIC "-//W3C//DTD SVG 1.1//EN" "http://www.w3.org/Graphics/SVG/1.1/DTD/svg11.dtd">
<svg version="1.1" id="Layer_1" xmlns="http://www.w3.org/2000/svg" xmlns:xlink="http://www.w3.org/1999/xlink" x="0px" y="0px"
	 width="36px" height="36px" viewBox="0 0 36 36" enable-background="new 0 0 36 36" xml:space="preserve">
<g id="alita">
	<rect x="0.5" y="0.5" width="35" height="35"/>
	<path fill="#FDC400" d="M35,1v34H1V1H35 M36,0H0v36h36V0L36,0z"/>

	<path fill="#FDC400" d="M6.221,12.606H2.589v-1.221h8.712v1.221h-3.63v9.674H6.221V12.606z"/>
	<path fill="#FDC400" d="M14.069,11.386h1.602l4.258,10.895h-1.604L17.136,19h-4.607l-1.222,3.28H9.812L14.069,11.386z
		 M12.985,17.779h3.693l-1.814-5.081h-0.033L12.985,17.779z"/>
	<path fill="#FDC400" d="M23.594,16.68l-3.585-5.294h1.739l2.716,4.257l2.84-4.257h1.614l-3.601,5.294l3.831,5.601h-1.772
		l-2.929-4.501l-3.02,4.501h-1.631L23.594,16.68z"/>
	<path fill="#FDC400" d="M30.389,11.386h1.449V22.28h-1.449V11.386z"/>
</g>
</svg>
