<svg xmlns="http://www.w3.org/2000/svg" width="36" height="36" viewBox="0 0 36 36"><g id="ferry"><path fill="#fff" d="M18 0c9.912 0 18 8.087 18 17.999 0 9.913-8.088 18.001-18 18.001-9.914 0-18-8.088-18-18.001 0-9.912 8.086-17.999 18-17.999"/><path fill="#00A5DF" d="M12.183 5.351h15.374l-1.302 4.737h-8.641l-1.42 5.528h7.997l-1.366 4.626h-7.995l-2.225 7.262c3.402.533 5.572 1.511 7.721 2.542 2.847 1.365 7.71.674 11.797-.916 2.424-3.068 3.877-6.934 3.877-11.131 0-9.912-8.088-17.999-18-17.999-9.914 0-18 8.087-18 17.999 0 3.71 1.133 7.165 3.069 10.035.831-.357 1.776-.595 2.901-.672l6.213-22.011zM19.193 32.328c-4.043-1.771-6.496-2.744-10.517-2.837-1.449-.032-2.776.019-4.127.443 3.302 3.716 8.109 6.066 13.451 6.066 3.657 0 7.063-1.104 9.91-2.991-3.098.655-6.212.416-8.717-.681z"/></g></svg>
