<svg xmlns="http://www.w3.org/2000/svg" width="36" height="36" viewBox="0 0 36 36"><g id="lift"><path fill="#95C11F" d="M.002 0h35.998v36h-35.998z"/><path fill="#fff" d="M36 19.64v1.263l-36 13.14v-1.263zM36 2.213v1.264l-36 13.141v-1.264zM4.78 16.855l-1.469.735-.587.882-.148.588v10.644l30.775-11.234v-9.545l-.147-.881-.291-.441-.439-.295-.444-.149h-.589l-.292.148-26.369 9.548zm2.15 6.822l-1.741.638c-.323.118-.871-.209-.871-.553v-3.166c0-.492.408-1.021.871-1.189l1.741-.637c.323-.117.873.211.873.554v3.167c0 .488-.409 1.018-.873 1.186zm23.808-8.69l-1.741.638c-.323.118-.873-.21-.873-.554v-3.167c0-.491.41-1.02.873-1.188l1.741-.638c.323-.117.872.211.872.555v3.166c-.002.491-.411 1.02-.872 1.188zm-19.046 6.949l-1.742.636c-.322.116-.87-.209-.87-.554v-3.166c0-.49.408-1.019.87-1.189l1.742-.635c.323-.119.872.209.872.553v3.166c-.001.491-.411 1.021-.872 1.189zm4.76-1.734l-1.74.637c-.322.118-.872-.209-.872-.553v-3.166c0-.492.41-1.021.872-1.188l1.74-.637c.324-.119.872.21.872.553v3.167c0 .489-.41 1.018-.872 1.187zm4.761-1.74l-1.74.637c-.322.119-.871-.21-.871-.555v-3.166c0-.491.409-1.021.871-1.188l1.74-.637c.325-.117.871.211.871.555v3.166c0 .49-.408 1.02-.871 1.188zm4.761-1.734l-1.742.635c-.321.117-.871-.209-.871-.553v-3.167c0-.492.411-1.021.871-1.189l1.742-.636c.323-.118.872.209.872.553v3.166c0 .491-.41 1.021-.872 1.191z"/></g></svg>
