<svg xmlns="http://www.w3.org/2000/svg" width="36" height="36" viewBox="0 0 36 36"><g id="metropolitan"><path fill="#009551" d="M18 0c-9.913 0-18 8.087-18 18 0 9.916 8.087 18 18 18 9.912 0 18-8.084 18-18 0-9.913-8.088-18-18-18"/><path fill="#fff" d="M28.897 7.103c0 5.337-.042 5.247-.042 5.247-2.631-2.578-12.219-6.661-14.122-3.501-2.241 3.721 4.863 5.1 10.669 7.079 6.925 2.359 6.82 10.342 1.773 14.188-6.68 5.09-14.889 2.68-21.039-1.928v-5.502c1.465 1.706 3.876 2.835 7.286 4.063 1.939.698 6.904 1.793 8.17-.457 1.704-3.029-2.735-3.983-4.529-4.316-2.676-.495-4.86-1.236-7.147-2.745-5.225-3.454-4.967-10.174.129-13.771 5.716-4.035 13.73-2.623 18.852 1.643"/></g></svg>
