<svg xmlns="http://www.w3.org/2000/svg" width="36" height="36" viewBox="0 0 36 36"><g id="bus"><path fill="#005E79" d="M18 0c9.912 0 18 8.087 18 17.998 0 9.914-8.088 18.002-18 18.002-9.914 0-18-8.088-18-18.002 0-9.911 8.086-17.998 18-17.998"/><path fill="#fff" d="M31.983 14.461c-1.128-.422-1.976-.633-2.532-.633-1.264 0-1.892.409-1.892 1.22 0 .518.442.946 1.331 1.289 1.312.498 2.14.879 2.481 1.145.896.682 1.34 1.696 1.34 3.042 0 1.396-.499 2.442-1.493 3.148-.834.584-1.899.873-3.205.873-.937 0-2.097-.214-3.477-.645l.261-2.674c1.144.528 2.156.793 3.027.793 1.218 0 1.824-.419 1.824-1.257 0-.573-.447-1.047-1.344-1.426-1.429-.607-2.26-.994-2.479-1.153-.894-.649-1.341-1.584-1.341-2.802 0-1.394.499-2.428 1.492-3.104.812-.55 1.873-.826 3.188-.826.755 0 1.771.169 3.039.506l-.22 2.504m-18.092-2.688h2.944v7.925c0 .711.151 1.279.455 1.713.332.464.807.695 1.422.695 1.163 0 1.745-.914 1.745-2.738v-7.595h2.961v8.017c0 1.557-.481 2.759-1.444 3.606-.878.769-2.025 1.15-3.434 1.15-1.273 0-2.341-.374-3.208-1.127-.957-.825-1.439-1.935-1.439-3.333l-.002-8.313zm-5.398 10.178c.377 0 .707-.144.985-.426.282-.284.422-.632.422-1.052 0-.95-.617-1.427-1.854-1.427h-1.243v2.905h1.69zm-.595-5.144c.444 0 .831-.106 1.144-.317.391-.251.587-.614.587-1.086 0-.422-.176-.763-.522-1.015-.304-.223-.648-.335-1.046-.335h-1.258v2.753h1.095zm-3.989-5.056h5.098c.972 0 1.766.233 2.397.696.75.547 1.123 1.34 1.123 2.385 0 .816-.156 1.461-.463 1.925-.308.466-.803.834-1.49 1.11 1.519.384 2.276 1.407 2.276 3.061 0 2.228-1.525 3.347-4.577 3.347h-4.364v-12.524z"/></g></svg>
