<svg width="36" height="36" xmlns="http://www.w3.org/2000/svg" xmlns:svg="http://www.w3.org/2000/svg">
  <g id="train">
   <path id="svg_1" d="m8.818,0l18.362,0c4.851,0 8.82,3.973 8.82,8.82l0,18.36c0,4.856 -3.969,8.82 -8.817,8.82l-18.365,0c-4.849,0 -8.818,-3.964 -8.818,-8.817l0,-18.363c0,-4.847 3.969,-8.82 8.818,-8.82" fill="#00A15E"/>
   <path id="svg_2" d="m30.364,15.462l0,-1.69l2.764,0l0,9.073c0,1.944 -0.431,3.395 -1.298,4.362c-0.864,0.971 -2.151,1.463 -3.867,1.463c-0.648,0 -1.264,-0.06 -1.851,-0.172c-0.582,-0.116 -1.134,-0.29 -1.657,-0.519l0.165,-2.678c0.481,0.287 0.965,0.503 1.462,0.648c0.496,0.145 0.983,0.219 1.463,0.219c0.857,0 1.508,-0.236 1.965,-0.712c0.454,-0.474 0.683,-1.159 0.683,-2.045l0,-0.974c-0.391,0.584 -0.823,1.015 -1.308,1.299c-0.479,0.292 -1.023,0.433 -1.632,0.433c-1.156,0 -2.081,-0.487 -2.797,-1.461c-0.712,-0.969 -1.07,-2.252 -1.07,-3.847c0,-1.607 0.369,-2.896 1.104,-3.885c0.73,-0.988 1.686,-1.488 2.857,-1.488c0.626,0 1.178,0.166 1.674,0.492c0.493,0.319 0.943,0.822 1.343,1.482m-2.059,0.716c-0.545,0 -0.967,0.24 -1.298,0.731c-0.327,0.482 -0.492,1.12 -0.492,1.913c0,0.795 0.165,1.435 0.492,1.913c0.331,0.483 0.753,0.715 1.298,0.715c0.534,0 0.974,-0.238 1.304,-0.719c0.331,-0.479 0.496,-1.118 0.496,-1.909c0,-0.79 -0.167,-1.429 -0.496,-1.913c-0.335,-0.488 -0.77,-0.731 -1.304,-0.731zm-15.381,-2.407l2.989,0l0,5.287c0,0.818 0.125,1.434 0.367,1.838c0.244,0.404 0.61,0.605 1.109,0.605c0.567,0 0.99,-0.27 1.283,-0.823c0.296,-0.548 0.431,-1.356 0.431,-2.419l0,-4.488l3.006,0l0,10.476l-2.725,0l0,-1.96c-0.343,0.698 -0.783,1.229 -1.325,1.595c-0.541,0.362 -1.153,0.548 -1.839,0.548c-1.073,0 -1.891,-0.396 -2.456,-1.181c-0.562,-0.788 -0.84,-1.934 -0.84,-3.437l0,-6.041l0,0zm-9.882,-3.66l8.958,0l0,2.995l-5.934,8.417l5.934,0l0,2.729l-9.133,0l0,-3.157l5.858,-8.255l-5.683,0l0,-2.729z" fill="#FFFFFF"/>
  </g>
</svg>
