<svg xmlns="http://www.w3.org/2000/svg" width="36" height="36" viewBox="0 0 36 36"><g id="tram"><path fill="#DD0B2F" d="M0 0h36v36h-36z"/><path fill="#fff" d="M21.919 13.686h2.331v1.599c.689-1.23 1.632-1.844 2.822-1.844.525 0 .962.138 1.313.422.313.241.611.649.893 1.218.616-1.093 1.532-1.64 2.758-1.64.83 0 1.457.304 1.879.921.39.561.581 1.342.581 2.348v5.584h-2.533v-4.436c0-1.311-.374-1.968-1.122-1.968-.47 0-.823.265-1.063.792-.198.425-.293.942-.293 1.545v4.065h-2.536v-4.688c0-1.146-.373-1.716-1.114-1.716-.487 0-.849.296-1.092.879-.189.454-.283.999-.283 1.63v3.895h-2.535v-8.607m-4.325 4.711c-.392 0-.73.09-1.011.272-.356.217-.535.537-.535.958 0 .343.103.612.308.813.192.193.431.286.723.286.487 0 .868-.232 1.15-.695.249-.414.374-.917.374-1.512l-.007-.047c-.575-.049-.907-.075-1.002-.075zm.974-1.479v-.246c0-.429-.198-.772-.592-1.033-.338-.214-.703-.323-1.104-.323-.483 0-1.219.223-2.216.664v-1.94c.774-.364 1.697-.543 2.762-.543 2.35 0 3.527 1.231 3.527 3.697v5.103h-2.181v-1.307c-.471.602-.836.993-1.088 1.163-.36.25-.836.373-1.434.373-.739 0-1.359-.274-1.852-.822-.496-.546-.744-1.253-.744-2.121 0-1.229.612-2.031 1.834-2.404.576-.176 1.606-.261 3.088-.261zm-7.983-3.231l.065 1.747c.257-.651.523-1.109.792-1.37.329-.325.771-.49 1.322-.49.109 0 .375.029.804.079l-.055 2.525c-.291-.076-.593-.12-.918-.12-1.159 0-1.739.89-1.739 2.667v3.557h-2.544v-6.382c0-.361-.023-1.099-.066-2.212l2.339-.001zm-9.086-2.81h7.438v2.281h-2.376v9.123h-2.627v-9.123h-2.435v-2.281z"/></g></svg>
